<?xml version="1.0" encoding="utf-8"?>
<!-- Generator: Adobe Illustrator 18.1.1, SVG Export Plug-In . SVG Version: 6.00 Build 0)  -->
<svg version="1.1" id="Layer_1" xmlns="http://www.w3.org/2000/svg" xmlns:xlink="http://www.w3.org/1999/xlink" x="0px" y="0px"
	 viewBox="0 0 124 71" style="enable-background:new 0 0 124 71;" xml:space="preserve">
<style type="text/css">
	.st0{fill:#13FF00;}
	.st1{fill:#33232D;}
</style>
<g>
	<g>
		<path class="st0" d="M83.4,44.4c-9.7,0-17.7-7.9-17.7-17.7c0-9.7,7.9-17.7,17.7-17.7s17.7,7.9,17.7,17.7
			C101.1,36.5,93.1,44.4,83.4,44.4z M83.4,11.1c-8.6,0-15.7,7-15.7,15.7s7,15.7,15.7,15.7s15.7-7,15.7-15.7S92,11.1,83.4,11.1z"/>
	</g>
	<g>
		<path class="st1" d="M32.6,37.5c-1.2-1.6-5.4-6.3-9.3-9.9c-4.5,4.4-9.9,8.2-15.6,10.7c-1.1-0.3-4.2-2.1-4.8-2.7
			C14.2,29.7,23.9,19.3,26,13.4H9.6C8.4,12,7.7,9.4,7.4,7.9h25c1.6,0,2.2,0.9,2,2.1c-1.1,4.7-3.9,9.6-7.7,14.1
			c5.2,3.5,10.5,8.2,12.4,10.3C38.2,35.4,34.4,37.2,32.6,37.5z M37.9,66.5c-7.7,0-13.7-5.2-13.7-12.6s6-12.6,13.7-12.6
			c7.7,0,13.7,5.2,13.7,12.6S45.5,66.5,37.9,66.5z M37.9,46.9c-4,0-7.5,2.9-7.5,7.1c0,4.3,3.5,7.1,7.5,7.1c4.1,0,7.5-2.8,7.5-7.1
			C45.4,49.8,41.9,46.9,37.9,46.9z M47,41V25.5H35.7c-1.2-1.2-2.1-3.9-2.2-5.5H47V8.7c0-1.6-0.5-3.3-0.7-4.3
			c2.6,0.2,5.5,0.7,6.8,1.8v32C52.5,39.6,49.4,40.8,47,41z"/>
		<path class="st1" d="M89.8,28.4c4.9,2.9,9.9,6.6,12.6,8.8c-0.8,1.1-4.1,2.9-5.8,3.4c-1.6-1.4-6.2-5.6-10.3-8.7
			c-5.2,4.6-11.4,8.4-16.7,10.7c-0.9-0.2-4.1-2.2-4.6-2.9c9.9-4.5,20.2-13.6,23.4-19.2H70.8c-1.2-1.4-1.9-3.9-2.2-5.5h26.3
			c1.6,0,2.2,0.9,1.9,2.1C95.7,20.9,93.1,24.8,89.8,28.4z M91.1,11.1H75.4c-1.3-1.4-2-4-2.2-5.5h20C92.9,7.2,92.3,9.7,91.1,11.1z
			 M82.5,64.4c-1,0-1.2-0.7-1.2-1.7V49c0-1.6-0.5-3.3-0.7-4.3c2.5,0.3,5.5,0.8,6.8,1.8v12.3h27.8c1.1,1.2,2,3.9,2.1,5.5H82.5z
			 M108.5,47.3V8.7c0-1.6-0.5-3.3-0.7-4.3c2.5,0.2,5.5,0.7,6.8,1.8v38.3C114.1,45.9,110.9,47.1,108.5,47.3z"/>
	</g>
</g>
</svg>
